<?xml version="1.0" encoding="UTF-8"?>
<svg version="1.1" xmlns="http://www.w3.org/2000/svg" width="300" height="300">
<path d="M0 0 C99 0 198 0 300 0 C300 99 300 198 300 300 C201 300 102 300 0 300 C0 201 0 102 0 0 Z " fill="#F2F6F4" transform="translate(0,0)"/>
<path d="M0 0 C99 0 198 0 300 0 C300 99 300 198 300 300 C201 300 102 300 0 300 C0 201 0 102 0 0 Z M139 11 C138.36707031 11.98613281 137.73414063 12.97226563 137.08203125 13.98828125 C133.29206798 18.60963683 127.5332879 18.70800357 121.9375 19.5625 C114.00237946 20.50260267 114.00237946 20.50260267 107.36328125 24.4140625 C106.24951325 26.52671125 105.2226305 28.63325713 104.25 30.8125 C101.23809934 35.77655849 96.41575005 37.57805814 91.359375 39.93554688 C64.68294065 52.42804376 43.22831296 77.54302871 33 105 C28.17529715 119.20120633 28.17529715 119.20120633 27 134 C26.41992188 133.95359375 25.83984375 133.9071875 25.2421875 133.859375 C17.84534597 133.51760674 14.6380615 135.64868432 9.125 140.5625 C6.29040693 144.1768355 6.36212257 147.85457401 6.57421875 152.30859375 C7.35715901 157.25763815 9.3851987 160.48306544 13.0625 163.9375 C15.07012142 165.24041631 15.07012142 165.24041631 18 165 C18.02578125 165.77601563 18.0515625 166.55203125 18.078125 167.3515625 C18.51809797 175.73104769 19.08416975 184.4452164 23 192 C25.34165792 193.6409757 25.34165792 193.6409757 28.125 194.6875 C34.29856255 197.34499381 36.13743482 201.07308357 38.9375 206.875 C52.97773628 235.9064049 77.81758291 256.89577013 108 268 C116.51492911 270.80834814 125.02013517 272.62661685 134 273 C133.94199219 273.64066406 133.88398438 274.28132813 133.82421875 274.94140625 C133.5287745 280.6054945 133.85884875 284.20246363 137.59765625 288.59375 C141.35990265 292.3664762 144.16769173 293.20930803 149.4375 293.4375 C154.40614281 293.28389948 157.26068485 292.46570672 161 289 C161.5671875 287.99582031 162.134375 286.99164063 162.71875 285.95703125 C165.64658541 282.16187474 167.3884825 281.99402685 172.0625 281.3125 C173.40781171 281.07961988 174.75286333 280.84523249 176.09765625 280.609375 C178.45593826 280.24111475 180.81741686 279.89167973 183.18359375 279.578125 C186.15239782 279.03459915 188.37330369 278.50096932 191 277 C192.75658261 274.39739526 192.75658261 274.39739526 194.1875 271.3125 C198.17507874 263.33734253 204.28370002 261.28020931 212.06982422 257.87939453 C238.67712421 245.75701981 257.16222642 218.02541603 267.31640625 191.5703125 C270.26796955 183.0096898 272.33021169 175.08082142 272 166 C272.58007812 166.03480469 273.16015625 166.06960937 273.7578125 166.10546875 C278.97343867 166.28620827 282.53517444 166.01116142 287 163 C289.2889924 160.639038 289.2889924 160.639038 291 158 C291.4125 157.401875 291.825 156.80375 292.25 156.1875 C293.64996854 152.10425842 293.75173886 148.11426553 292.3125 144.06640625 C290.56902281 140.6884192 289.5375259 139.26770898 286.01171875 137.51171875 C281.43794691 133.69727609 281.34431895 129.26099262 280.4375 123.5625 C279.13582562 114.02961844 279.13582562 114.02961844 273 107 C271.08290262 105.96962158 271.08290262 105.96962158 269.1875 105.1875 C264.19554576 102.22411143 262.4182449 97.40815241 260.06445312 92.35913086 C247.46853448 65.46489547 222.84647444 45.11193727 195.6484375 34.04296875 C193.44830158 33.27250917 191.24737199 32.62033139 189 32 C187.81148437 31.66097656 186.62296875 31.32195313 185.3984375 30.97265625 C178.97363044 29.17546831 172.67171006 27.54462939 166 27 C165.98582031 26.35933594 165.97164062 25.71867187 165.95703125 25.05859375 C165.61002107 18.76551726 164.58905946 14.47713118 160 10 C153.03939784 5.09593939 145.38475149 5.48589644 139 11 Z " fill="#F6F6F6" transform="translate(0,0)"/>
<path d="M0 0 C1.00330856 0.00314209 1.00330856 0.00314209 2.02688599 0.00634766 C21.07178086 0.12838866 37.49090331 3.96897511 54 13.5 C54.92941406 14.0053125 55.85882813 14.510625 56.81640625 15.03125 C80.21378426 28.21287141 97.87004127 51.21016916 105.375 76.9375 C105.94733253 79.11717762 106.4875221 81.30547831 107 83.5 C107.17805176 84.14976807 107.35610352 84.79953613 107.53955078 85.46899414 C109.22298816 92.01808467 109.23050656 98.3303699 109.125 105.0625 C109.11597656 106.16658203 109.10695313 107.27066406 109.09765625 108.40820312 C109.07430128 111.1057017 109.04155054 113.80273077 109 116.5 C107.61554688 116.31824219 107.61554688 116.31824219 106.203125 116.1328125 C102.59162544 115.66888469 98.97883529 115.22161062 95.36376953 114.78662109 C93.85639402 114.60384286 92.34949202 114.4170849 90.84326172 114.22509766 C73.28661977 112.01390325 55.67556062 111.90789755 38 111.5 C38 93.02 38 74.54 38 55.5 C24.47 55.5 10.94 55.5 -3 55.5 C-3 75.3 -3 95.1 -3 115.5 C-20 118.5 -20 118.5 -26 118.5 C-26 104.31 -26 90.12 -26 75.5 C-36.23 75.5 -46.46 75.5 -57 75.5 C-57 92.66 -57 109.82 -57 127.5 C-62.61 129.48 -68.22 131.46 -74 133.5 C-78.33409175 135.25739871 -82.64245754 137.02988767 -86.9375 138.875 C-89.00775981 139.76098488 -91.07930786 140.64396773 -93.15234375 141.5234375 C-94.03913818 141.90419434 -94.92593262 142.28495117 -95.83959961 142.67724609 C-98 143.5 -98 143.5 -100 143.5 C-110.11245232 124.87319091 -107.46576911 97.03334118 -102.1875 77.4375 C-93.40795557 48.43936966 -73.92705894 25.46139383 -47.3125 11.125 C-32.22745651 3.26792595 -17.00217459 -0.08595096 0 0 Z " fill="#0B4778" transform="translate(148,42.5)"/>
<path d="M0 0 C0 0.66 0 1.32 0 2 C0.6290625 2.04898438 1.258125 2.09796875 1.90625 2.1484375 C7.46913314 2.63435199 12.61993052 3.50553626 18 5 C17.64165007 11.45883091 15.26435797 15.43208709 11.625 20.6875 C11.08697754 21.47697021 10.54895508 22.26644043 9.99462891 23.07983398 C5.19641099 29.9805233 -0.0260239 36.08825281 -6 42 C-6.763125 42.78503906 -7.52625 43.57007813 -8.3125 44.37890625 C-18.08401859 53.8698238 -31.29077093 61.21051933 -44 66 C-45.66869141 66.69609375 -45.66869141 66.69609375 -47.37109375 67.40625 C-67.37163965 74.82936848 -97.43347701 74.53347996 -117 66 C-117.78455566 65.67290039 -118.56911133 65.34580078 -119.37744141 65.00878906 C-142.92706212 55.05901721 -161.47547016 38.89275723 -174.6875 17 C-175.13432129 16.26958496 -175.58114258 15.53916992 -176.04150391 14.78662109 C-176.4441748 14.09391113 -176.8468457 13.40120117 -177.26171875 12.6875 C-177.62225342 12.07261719 -177.98278809 11.45773438 -178.35424805 10.82421875 C-179.16613991 8.5306626 -178.77866333 7.26383948 -178 5 C-170.46250352 3.22500673 -162.9187234 1.47945717 -155.3671875 -0.23486328 C-153.34024869 -0.69545103 -151.31398036 -1.15902509 -149.2890625 -1.62841797 C-99.99321647 -12.96526606 -49.29760408 -8.61595922 0 0 Z " fill="#EFC810" transform="translate(230,186)"/>
<path d="M0 0 C4.02414256 2.36102829 7.05331903 4.58415331 8.7421875 9.0546875 C9.25409073 12.38205847 9.55297279 15.69449522 9.7421875 19.0546875 C10.75796875 19.23644531 11.77375 19.41820313 12.8203125 19.60546875 C16.44346581 20.26136918 20.05987032 20.9485827 23.67382812 21.65332031 C25.41875561 21.99192522 27.16615858 22.31773634 28.9140625 22.640625 C37.94445525 24.5614544 45.68580128 28.70253058 53.7421875 33.0546875 C54.80824219 33.61285156 55.87429687 34.17101563 56.97265625 34.74609375 C65.11194723 39.20818854 71.91602615 44.83200479 78.7421875 51.0546875 C80.05703125 52.24384766 80.05703125 52.24384766 81.3984375 53.45703125 C91.4818789 63.04587347 99.34680873 74.1312544 105.10595703 86.77587891 C107.81499294 92.65720036 110.52879258 95.52027325 116.2421875 98.3671875 C121.29827638 101.62998377 122.35414778 105.73957891 123.64111328 111.29736328 C124.25792448 114.22270763 124.75788674 117.15798585 125.20703125 120.11328125 C125.89394939 125.49328751 125.89394939 125.49328751 129.6171875 129.2421875 C130.6484375 129.8403125 131.6796875 130.4384375 132.7421875 131.0546875 C135.99644993 134.87447724 137.4666566 138.90877568 137.19921875 144 C136.12428583 148.83260441 133.22242972 152.70505489 129.6171875 155.9921875 C126.35204269 157.84243623 123.72874514 158.17043471 120.0546875 158.1171875 C119.24644531 158.10816406 118.43820312 158.09914062 117.60546875 158.08984375 C116.68314453 158.07244141 116.68314453 158.07244141 115.7421875 158.0546875 C115.8246875 159.0653125 115.9071875 160.0759375 115.9921875 161.1171875 C115.91445784 183.19241087 101.76429043 207.13492493 88.03710938 223.50585938 C87.17293655 224.53947785 86.31999578 225.58259028 85.47851562 226.63476562 C81.20114343 231.94299121 76.09293546 235.8835201 70.7421875 240.0546875 C69.88496094 240.73917969 69.02773437 241.42367187 68.14453125 242.12890625 C62.18826483 246.70166584 56.01674942 250.12806099 49.22387695 253.26586914 C44.65061721 255.41503589 40.76476861 257.31964997 38.92578125 262.23828125 C38.67957031 262.98207031 38.43335938 263.72585938 38.1796875 264.4921875 C36.25117552 268.20839947 34.29142235 269.43096707 30.44140625 270.71484375 C24.29400125 272.44727785 18.1166661 273.78618697 11.76953125 274.50390625 C8.47356673 274.74517898 8.47356673 274.74517898 6.6796875 277.8671875 C5.720625 279.445 5.720625 279.445 4.7421875 281.0546875 C1.08168832 284.44734528 -1.82290516 285.37022987 -6.6953125 285.6171875 C-12.17317653 285.40850697 -15.45112383 283.95898357 -19.2578125 280.0546875 C-23.2035001 275.59987892 -22.55308898 270.68681291 -22.2578125 265.0546875 C-22.87785156 265.02890625 -23.49789062 265.003125 -24.13671875 264.9765625 C-54.85522916 263.00914699 -81.81401764 245.06016114 -102.2578125 223.0546875 C-104.36043907 220.49046044 -106.29388529 217.83301334 -108.1953125 215.1171875 C-108.71472412 214.38717529 -109.23413574 213.65716309 -109.76928711 212.9050293 C-113.21837226 207.92741486 -115.86167951 202.88766048 -118.3203125 197.3671875 C-121.26609725 190.77647259 -124.27872971 188.54631204 -130.828125 185.70703125 C-135.07737634 182.81726707 -135.62980501 178.64545952 -136.6875 173.82421875 C-137.53220757 168.24104885 -138.07032608 162.69802876 -138.2578125 157.0546875 C-138.86367187 156.93738281 -139.46953125 156.82007813 -140.09375 156.69921875 C-143.89927103 155.56580545 -146.35452171 152.54749439 -148.37109375 149.21484375 C-150.13457532 144.91878512 -150.08786396 140.57940413 -149.2578125 136.0546875 C-146.61806244 131.5634963 -143.17626367 127.94568293 -138.2578125 126.0546875 C-135.8984375 125.859375 -135.8984375 125.859375 -133.5078125 125.9296875 C-132.70859375 125.94773437 -131.909375 125.96578125 -131.0859375 125.984375 C-130.48265625 126.00757813 -129.879375 126.03078125 -129.2578125 126.0546875 C-129.309375 125.11367187 -129.3609375 124.17265625 -129.4140625 123.203125 C-129.40394378 118.16147361 -128.09340732 113.51226559 -126.7578125 108.6796875 C-126.49081543 107.71305176 -126.22381836 106.74641602 -125.94873047 105.75048828 C-116.32979979 72.43306136 -93.20417036 47.4160256 -63.4140625 30.74609375 C-60.2578125 29.0546875 -60.2578125 29.0546875 -57.0546875 27.6484375 C-53.80827375 25.79852575 -52.75641399 24.25400182 -51.0078125 20.9921875 C-48.37431735 16.17119235 -48.37431735 16.17119235 -46.2578125 14.0546875 C-43.9387207 13.49560547 -43.9387207 13.49560547 -41.05859375 13.046875 C-39.49141602 12.77230469 -39.49141602 12.77230469 -37.89257812 12.4921875 C-35.70049165 12.12104058 -33.50506607 11.76903992 -31.30664062 11.4375 C-24.44692833 10.19257367 -20.83490054 8.65796459 -16.74682617 2.89892578 C-12.67221269 -2.14774256 -5.68325842 -2.37949574 0 0 Z M-32.703125 21.34765625 C-36.48112213 21.97732244 -38.68362772 22.51240188 -41.5078125 25.1796875 C-42.47191622 26.76357218 -43.41418631 28.3643569 -44.25 30.01953125 C-47.17425192 35.43443912 -49.7523939 37.10692958 -55.52734375 39.0859375 C-79.44431842 47.57150219 -98.72639798 69.85349563 -109.55810547 92.08178711 C-116.80496256 107.52765675 -119.64817132 121.5165433 -119.09179688 138.53320312 C-118.98871283 144.12462386 -118.92181115 148.29665792 -122.2578125 153.0546875 C-125.4453125 155.4296875 -125.4453125 155.4296875 -128.2578125 157.0546875 C-127.57884283 167.58516328 -127.57884283 167.58516328 -123.0703125 176.8046875 C-120.32671572 179.21102276 -120.32671572 179.21102276 -116.8203125 180.4921875 C-112.43533407 182.84464374 -111.45214047 186.76826999 -109.72753906 191.2199707 C-104.64117496 204.01607137 -95.75893926 214.30158078 -86.2578125 224.0546875 C-85.68933594 224.69664062 -85.12085938 225.33859375 -84.53515625 226 C-72.64057413 239.08099824 -53.97827551 247.67696627 -37.2578125 252.0546875 C-36.16339844 252.35375 -35.06898437 252.6528125 -33.94140625 252.9609375 C-22.52647007 256.02234979 -22.52647007 256.02234979 -11.2578125 254.0546875 C-5.14217915 253.52747773 -0.20346213 254.16881994 4.7421875 258.0546875 C6.13332217 260.01492272 7.47679572 262.01102378 8.7421875 264.0546875 C11.49637796 263.65779542 14.2437288 263.23818424 16.9921875 262.8046875 C17.76949219 262.69511719 18.54679688 262.58554687 19.34765625 262.47265625 C22.75422171 261.91945331 25.1857051 261.44460374 28.0390625 259.4453125 C29.57316399 257.29194068 30.3756002 255.52387975 31.37109375 253.109375 C33.94669127 247.69774034 38.3569825 246.33374818 43.6796875 244.1796875 C52.89562595 240.13414707 60.13845381 235.6393641 67.7421875 229.0546875 C68.48339844 228.46171875 69.22460938 227.86875 69.98828125 227.2578125 C88.07086697 212.45335635 101.7515479 187.49282742 105.40625 164.44921875 C106.06997313 157.77546676 105.8329058 150.99263853 105.54516602 144.30151367 C105.36321891 138.16319303 105.56264763 134.69360022 109.7421875 130.0546875 C112.4921875 128.1796875 112.4921875 128.1796875 114.7421875 127.0546875 C114.50796448 117.04825063 114.50796448 117.04825063 110.7421875 108.0546875 C109.23137814 107.2250037 107.68373896 106.46110104 106.1171875 105.7421875 C99.59268779 102.30923853 97.80740295 96.74199263 94.99536133 90.29541016 C92.01386631 83.4709972 88.47586784 77.82552252 83.7421875 72.0546875 C82.97132813 71.06082031 82.20046875 70.06695312 81.40625 69.04296875 C68.51676036 52.83961979 51.73682392 42.57853699 32.7421875 35.0546875 C31.92234375 34.72726563 31.1025 34.39984375 30.2578125 34.0625 C20.67338797 30.5674279 9.93031494 28.363967 -0.2578125 29.0546875 C-0.9178125 29.3846875 -1.5778125 29.7146875 -2.2578125 30.0546875 C-6.75633246 30.46871058 -10.89721929 30.58709354 -15.1328125 28.9296875 C-17.2578125 27.0546875 -17.2578125 27.0546875 -19.0078125 23.8671875 C-20.88048159 20.93418902 -20.88048159 20.93418902 -23.19140625 20.59765625 C-26.41581759 20.53618567 -29.50775891 20.96482485 -32.703125 21.34765625 Z " fill="#134B75" transform="translate(156.2578125,7.9453125)"/>
<path d="M0 0 C1.11790421 -0.01045349 1.11790421 -0.01045349 2.25839233 -0.02111816 C4.68273585 -0.03853222 7.10684631 -0.04485074 9.53125 -0.046875 C10.78545746 -0.04838562 10.78545746 -0.04838562 12.06500244 -0.04992676 C37.02338065 -0.02976029 61.49223444 2.57732267 86.03125 7.203125 C86.96943736 10.53753516 86.93907987 12.57180551 86.09375 15.953125 C85.89910156 16.75234375 85.70445312 17.5515625 85.50390625 18.375 C85.34792969 18.97828125 85.19195312 19.5815625 85.03125 20.203125 C78.51953293 19.50956934 72.23635284 18.2293852 65.84375 16.828125 C54.63409169 14.43087358 43.41078835 12.57520217 32.03125 11.203125 C31.32790527 11.1110376 30.62456055 11.0189502 29.89990234 10.92407227 C20.78084672 9.8514173 11.57612597 9.84876097 2.40625 9.640625 C0.62108538 9.59734926 -1.16407101 9.55373237 -2.94921875 9.50976562 C-7.28897748 9.4036161 -11.62882178 9.30209242 -15.96875 9.203125 C-15.96875 6.563125 -15.96875 3.923125 -15.96875 1.203125 C-10.62614413 0.45968933 -5.39779834 0.0344337 0 0 Z " fill="#184C76" transform="translate(167.96875,162.796875)"/>
<path d="M0 0 C8.91 0 17.82 0 27 0 C27 7.59 27 15.18 27 23 C18.09 23 9.18 23 0 23 C0 15.41 0 7.82 0 0 Z " fill="#0F4A77" transform="translate(152,107)"/>
<path d="M0 0 C4.47920597 -0.02682159 8.95825351 -0.04675177 13.4375 -0.0625 C14.71689453 -0.07087891 15.99628906 -0.07925781 17.31445312 -0.08789062 C19.13686523 -0.09272461 19.13686523 -0.09272461 20.99609375 -0.09765625 C22.12200928 -0.10289307 23.2479248 -0.10812988 24.40795898 -0.11352539 C27 0 27 0 28 1 C28.07271741 3.35313555 28.08370868 5.70833668 28.0625 8.0625 C28.05347656 9.35285156 28.04445312 10.64320313 28.03515625 11.97265625 C28.02355469 12.97167969 28.01195312 13.97070312 28 15 C24.4587501 15.33786094 20.91694184 15.66947831 17.375 16 C16.37597656 16.09539062 15.37695312 16.19078125 14.34765625 16.2890625 C13.37441406 16.37929687 12.40117187 16.46953125 11.3984375 16.5625 C10.06304932 16.68818359 10.06304932 16.68818359 8.70068359 16.81640625 C5.80648996 17.0131549 2.90087346 17 0 17 C0 11.39 0 5.78 0 0 Z " fill="#154D79" transform="translate(152,139)"/>
<path d="M0 0 C6.6 0 13.2 0 20 0 C20 5.61 20 11.22 20 17 C13.4 17 6.8 17 0 17 C0 11.39 0 5.78 0 0 Z " fill="#114A76" transform="translate(96,125)"/>
<path d="M0 0 C6.6 0 13.2 0 20 0 C20 4.62 20 9.24 20 14 C17.23058394 14.83830973 14.45964931 15.67082034 11.6875 16.5 C10.90181641 16.73847656 10.11613281 16.97695312 9.30664062 17.22265625 C8.54931641 17.44824219 7.79199219 17.67382812 7.01171875 17.90625 C6.31522217 18.11572266 5.61872559 18.32519531 4.90112305 18.54101562 C3 19 3 19 0 19 C0 12.73 0 6.46 0 0 Z " fill="#144C78" transform="translate(96,149)"/>
<path d="M0 0 C0 2.31 0 4.62 0 7 C-1.58699707 7.16604736 -1.58699707 7.16604736 -3.20605469 7.33544922 C-7.18740422 7.7530026 -11.16822977 8.17538658 -15.14892578 8.59912109 C-16.86135481 8.78074722 -18.57391744 8.9611188 -20.28662109 9.14013672 C-29.91372166 10.14729686 -39.47650295 11.22657687 -49 13 C-49 11.02 -49 9.04 -49 7 C-44.60833013 6.15941743 -40.21581768 5.32342311 -35.82250977 4.49145508 C-34.33171707 4.20849918 -32.84115113 3.92434565 -31.35083008 3.63891602 C-20.88580094 1.6357207 -10.69737111 -0.19449766 0 0 Z " fill="#19496F" transform="translate(145,165)"/>
<path d="M0 0 C2.75329021 1.79562405 4.52627461 3.05254922 6 6 C6.43023798 9.87214182 6.31669086 11.52496371 4.125 14.8125 C1.18803467 17.83584667 0.44742902 17.96391701 -3.875 18.3125 C-6.81634722 18.25377982 -7.86075136 18.08569147 -10.4375 16.5 C-12.57396001 13.08166398 -13.36027619 10.03509328 -13 6 C-9.46631474 0.27299286 -6.6009622 -0.55940358 0 0 Z " fill="#F3F7F8" transform="translate(26,141)"/>
<path d="M0 0 C3.02921527 2.58591547 3.84825878 4.08955268 4.5 8 C3.88466097 11.69203416 2.58383614 13.34016868 0 16 C-3.10048928 17.55024464 -5.57894218 17.28992015 -9 17 C-11.75329021 15.20437595 -13.52627461 13.94745078 -15 11 C-15.43023798 7.12785818 -15.31669086 5.47503629 -13.125 2.1875 C-9.13124954 -1.9237137 -5.31917811 -1.36994818 0 0 Z " fill="#F3F6F7" transform="translate(155,269)"/>
<path d="M0 0 C2.75329021 1.79562405 4.52627461 3.05254922 6 6 C6.43023798 9.87214182 6.31669086 11.52496371 4.125 14.8125 C1.42055063 17.59649199 0.57733296 17.93464155 -3.3125 18.375 C-7 18 -7 18 -9.9375 16.0625 C-12.35365674 12.47487333 -12.7425028 10.34295081 -12.48046875 6.09375 C-12 4 -12 4 -9.9375 1.4375 C-6.25456163 -0.36478899 -4.05704375 -0.57957768 0 0 Z " fill="#F5F8F8" transform="translate(153,14)"/>
<path d="M0 0 C2.09765625 0.703125 2.09765625 0.703125 4.72265625 2.828125 C6.57033056 6.69144402 6.33555008 8.62535708 5.09765625 12.703125 C2.97265625 15.640625 2.97265625 15.640625 0.09765625 17.703125 C-3.46484375 18.265625 -3.46484375 18.265625 -6.90234375 17.703125 C-9.26731814 15.83603995 -10.5626509 14.38251069 -11.90234375 11.703125 C-12.38632336 7.42797177 -12.32534914 5.35810109 -9.96484375 1.703125 C-6.23174164 -0.73481924 -4.29518808 -0.77442456 0 0 Z " fill="#F2F6F6" transform="translate(279.90234375,141.296875)"/>
<path d="M0 0 C-0.33 0.66 -0.66 1.32 -1 2 C2.37650045 3.12550015 5.08600887 3.19163749 8.64453125 3.28125 C9.96130859 3.31863281 11.27808594 3.35601562 12.63476562 3.39453125 C14.02733135 3.43017518 15.41990976 3.46532701 16.8125 3.5 C19.52749947 3.56812169 22.24226666 3.64189463 24.95703125 3.71875 C26.16335205 3.74904297 27.36967285 3.77933594 28.61254883 3.81054688 C31.81204529 3.98948808 34.8536 4.40703039 38 5 C38 5.33 38 5.66 38 6 C36.70304199 5.98428955 35.40608398 5.9685791 34.06982422 5.95239258 C10.07678576 5.68720747 -13.6219337 5.4888284 -37.44018555 8.72460938 C-39.98190086 8.99805285 -42.44582745 9.04839303 -45 9 C-40.90842263 4.71358562 -37.15650792 3.43735421 -31.4375 2.4375 C-30.35505005 2.24353638 -30.35505005 2.24353638 -29.25073242 2.0456543 C-19.43425675 0.32768862 -9.97171942 -0.14066689 0 0 Z " fill="#F5F6E7" transform="translate(138,173)"/>
<path d="M0 0 C0 1.32 0 2.64 0 4 C-0.55236328 4.12528076 -1.10472656 4.25056152 -1.67382812 4.37963867 C-12.52940612 6.85856882 -23.19859563 9.50994123 -33.75 13.08203125 C-36.70726496 13.91731642 -38.95619026 14.20176769 -42 14 C-39.79530396 11.50313622 -38.04581294 10.45209998 -34.8671875 9.5 C-34.06023438 9.2525 -33.25328125 9.005 -32.421875 8.75 C-31.58140625 8.5025 -30.7409375 8.255 -29.875 8 C-28.22634357 7.50072234 -26.57790512 7.00072434 -24.9296875 6.5 C-24.11636963 6.25483643 -23.30305176 6.00967285 -22.46508789 5.75708008 C-15.28710561 3.56205239 -15.28710561 3.56205239 -8.3125 0.8125 C-5.45619996 -0.19106488 -3.00434863 -0.13973715 0 0 Z " fill="#194B73" transform="translate(91,175)"/>
<path d="M0 0 C0 0.66 0 1.32 0 2 C1.32 2.66 2.64 3.32 4 4 C2.91203125 4.12117187 1.8240625 4.24234375 0.703125 4.3671875 C-7.91211226 5.3437579 -16.46422888 6.45402219 -25 8 C-25 6.02 -25 4.04 -25 2 C-16.43958132 -0.02025881 -8.80085615 -1.71875544 0 0 Z " fill="#255374" transform="translate(121,170)"/>
<path d="M0 0 C-4.60807458 0.97897273 -9.21623116 1.95755826 -13.82446289 2.93579102 C-15.39089154 3.26836782 -16.95729806 3.6010489 -18.52368164 3.93383789 C-20.78005197 4.41320015 -23.03650263 4.89218267 -25.29296875 5.37109375 C-25.98899704 5.51904892 -26.68502533 5.66700409 -27.40214539 5.81944275 C-29.26763098 6.21516475 -31.13379029 6.60770709 -33 7 C-33.91563721 7.20761963 -34.83127441 7.41523926 -35.7746582 7.62915039 C-38.68537671 8.11421692 -41.13268383 7.60013594 -44 7 C-44 6.67 -44 6.34 -44 6 C-42.20369141 5.52820313 -42.20369141 5.52820313 -40.37109375 5.046875 C-39.59016357 4.84143066 -38.8092334 4.63598633 -38.00463867 4.42431641 C-36.28253893 3.97196838 -34.5600393 3.52114019 -32.8371582 3.07177734 C-28.74863779 2.00237289 -24.66890266 0.91731393 -20.609375 -0.2578125 C-19.94365479 -0.44698242 -19.27793457 -0.63615234 -18.59204102 -0.83105469 C-16.79202266 -1.34514787 -14.99549621 -1.87142216 -13.19921875 -2.3984375 C-8.09603152 -3.35801117 -4.50618797 -2.35960827 0 0 Z " fill="#E9ECDB" transform="translate(93,183)"/>
<path d="M0 0 C0.7734375 0.3403125 0.7734375 0.3403125 1.5625 0.6875 C0.5725 1.1825 0.5725 1.1825 -0.4375 1.6875 C0.2225 2.3475 0.8825 3.0075 1.5625 3.6875 C-3.23646274 5.28937291 -8.03686577 6.88676559 -12.83984375 8.4765625 C-14.68489969 9.08853003 -16.52995174 9.70050929 -18.375 10.3125 C-19.31923828 10.62445313 -20.26347656 10.93640625 -21.23632812 11.2578125 C-22.58694336 11.70640625 -22.58694336 11.70640625 -23.96484375 12.1640625 C-24.77687256 12.43299316 -25.58890137 12.70192383 -26.42553711 12.97900391 C-28.47104147 13.65229562 -28.47104147 13.65229562 -30.4375 14.6875 C-30.4375 13.6975 -30.4375 12.7075 -30.4375 11.6875 C-14.71484375 4.94921875 -14.71484375 4.94921875 -11.97436523 3.7800293 C-10.40349473 3.1035164 -8.83690854 2.41683671 -7.27758789 1.71411133 C-2.68670428 -0.34444927 -2.68670428 -0.34444927 0 0 Z " fill="#DEE4D4" transform="translate(78.4375,174.3125)"/>
<path d="M0 0 C-0.33 0.66 -0.66 1.32 -1 2 C2.37650045 3.12550015 5.08600887 3.19163749 8.64453125 3.28125 C9.96130859 3.31863281 11.27808594 3.35601562 12.63476562 3.39453125 C14.02733135 3.43017518 15.41990976 3.46532701 16.8125 3.5 C19.52749947 3.56812169 22.24226666 3.64189463 24.95703125 3.71875 C26.16335205 3.74904297 27.36967285 3.77933594 28.61254883 3.81054688 C31.81204529 3.98948808 34.8536 4.40703039 38 5 C38 5.33 38 5.66 38 6 C22.16 5.67 6.32 5.34 -10 5 C-9.67 3.68 -9.34 2.36 -9 1 C-5.8035914 -0.06546953 -3.34252724 -0.07427838 0 0 Z " fill="#FDFCDF" transform="translate(138,173)"/>
<path d="M0 0 C0.80244141 0.54720703 0.80244141 0.54720703 1.62109375 1.10546875 C-1.3050806 3.05625165 -3.39935206 3.82060337 -6.75390625 4.73046875 C-7.68976562 4.99085938 -8.625625 5.25125 -9.58984375 5.51953125 C-12.2801426 6.08472008 -14.64035196 6.21501092 -17.37890625 6.10546875 C-14.83696231 3.05337689 -12.1598856 2.05697594 -8.44140625 0.79296875 C-7.40113281 0.42558594 -6.36085938 0.05820313 -5.2890625 -0.3203125 C-2.37890625 -0.89453125 -2.37890625 -0.89453125 0 0 Z " fill="#2A5A7A" transform="translate(66.37890625,182.89453125)"/>
<path d="M0 0 C-5.05002222 1.03590199 -9.87416389 1.10251672 -15 1 C-15 0.01 -15 -0.98 -15 -2 C-9.50538777 -3.45445618 -4.93029836 -2.8444029 0 0 Z " fill="#EFF2E5" transform="translate(93,183)"/>
<path d="M0 0 C-0.99 0.495 -0.99 0.495 -2 1 C-1.34 1.66 -0.68 2.32 0 3 C-3.63 3.66 -7.26 4.32 -11 5 C-11 4.01 -11 3.02 -11 2 C-3.57142857 -1.57142857 -3.57142857 -1.57142857 0 0 Z " fill="#DDE6DF" transform="translate(80,175)"/>
<path d="M0 0 C-1.38238352 3.10009769 -2.98578859 5.28263873 -5.375 7.6875 C-5.96023437 8.28949219 -6.54546875 8.89148438 -7.1484375 9.51171875 C-9.12608914 11.10135013 -10.5214179 11.5905426 -13 12 C-2.93659942 0 -2.93659942 0 0 0 Z " fill="#215275" transform="translate(70,55)"/>
<path d="M0 0 C7.26 0 14.52 0 22 0 C22 0.33 22 0.66 22 1 C20.74703125 1.04898438 19.4940625 1.09796875 18.203125 1.1484375 C16.55206179 1.22348583 14.90102119 1.29903277 13.25 1.375 C12.0125 1.42140625 12.0125 1.42140625 10.75 1.46875 C9.95078125 1.50742188 9.1515625 1.54609375 8.328125 1.5859375 C7.22839355 1.63306885 7.22839355 1.63306885 6.10644531 1.68115234 C3.75077082 2.03772523 2.06549409 2.83662883 0 4 C0 2.68 0 1.36 0 0 Z " fill="#093D67" transform="translate(152,164)"/>
<path d="M0 0 C1.32 0 2.64 0 4 0 C4 0.66 4 1.32 4 2 C5.98 2 7.96 2 10 2 C10 2.33 10 2.66 10 3 C6.04 3.66 2.08 4.32 -2 5 C-1.34 3.35 -0.68 1.7 0 0 Z " fill="#F1EBBE" transform="translate(74,182)"/>
<path d="M0 0 C0 0.99 0 1.98 0 3 C-4.455 3.495 -4.455 3.495 -9 4 C-5.73092573 0.73092573 -4.54139841 0 0 0 Z " fill="#0C4068" transform="translate(74,180)"/>
<path d="M0 0 C0 0.66 0 1.32 0 2 C0.66 2.33 1.32 2.66 2 3 C-4.625 4.25 -4.625 4.25 -8 2 C-5.09399739 0.74335022 -3.20395416 0 0 0 Z " fill="#CAD4CC" transform="translate(69,178)"/>
<path d="M0 0 C0.598125 0.226875 1.19625 0.45375 1.8125 0.6875 C0.8225 0.6875 -0.1675 0.6875 -1.1875 0.6875 C-2.39378008 3.01964148 -3.3529738 5.18392139 -4.1875 7.6875 C-5.1775 8.0175 -6.1675 8.3475 -7.1875 8.6875 C-4.49237805 -0.64176829 -4.49237805 -0.64176829 0 0 Z " fill="#28597C" transform="translate(112.1875,22.3125)"/>
<path d="M0 0 C0 1.32 0 2.64 0 4 C-0.99 4 -1.98 4 -3 4 C-3 3.34 -3 2.68 -3 2 C-4.98 2 -6.96 2 -9 2 C-5.5647952 -0.29013653 -4.014669 -0.17842973 0 0 Z " fill="#2D587A" transform="translate(91,175)"/>
<path d="M0 0 C0.66 0 1.32 0 2 0 C5 5.75 5 5.75 5 8 C4.01 7.67 3.02 7.34 2 7 C2 5.68 2 4.36 2 3 C1.34 3 0.68 3 0 3 C0 2.01 0 1.02 0 0 Z " fill="#26587B" transform="translate(244,101)"/>
</svg>
